<svg xmlns="http://www.w3.org/2000/svg"
  width="512"
  height="512"
  viewBox="0 0 512 512">
  <path
    d="M 218.986 24.661 L 212.376 27.966 L 209.071 31.271 L 205.766 37.219 L 205.766 39.202 L 205.105 39.863 L 205.105 61.014 L 205.766 62.336 L 205.105 62.997 L 170.074 62.997 L 169.413 63.658 L 166.769 63.658 L 166.108 64.319 L 164.125 64.319 L 163.464 64.980 L 160.160 65.641 L 151.567 70.929 L 145.618 76.877 L 140.330 86.131 L 140.330 87.453 L 139.009 90.097 L 139.009 92.080 L 138.348 92.741 L 138.348 96.707 L 137.687 97.368 L 137.687 452.969 L 138.348 453.630 L 139.009 460.239 L 142.974 469.493 L 145.618 473.459 L 151.567 479.407 L 154.211 481.390 L 162.142 485.356 L 166.108 486.017 L 166.769 486.678 L 170.074 486.678 L 170.735 487.339 L 341.265 487.339 L 341.926 486.678 L 347.214 486.017 L 347.875 485.356 L 351.179 484.695 L 359.111 480.068 L 366.382 472.798 L 371.009 464.866 L 371.009 463.544 L 372.330 460.900 L 372.330 458.917 L 372.991 458.256 L 372.991 455.613 L 373.652 454.952 L 373.652 95.385 L 372.991 94.724 L 372.330 89.436 L 371.670 88.775 L 371.009 85.470 L 366.382 77.538 L 359.111 70.268 L 351.179 65.641 L 349.858 65.641 L 345.231 63.658 L 341.926 63.658 L 341.265 62.997 L 306.895 62.997 L 306.234 62.336 L 306.234 39.202 L 305.573 38.541 L 304.912 35.236 L 302.929 31.932 L 298.302 27.305 L 293.014 24.661 L 291.031 24.661 L 290.370 24.000 L 221.630 24.000 L 220.969 24.661 Z M 168.091 78.199 L 170.074 78.199 L 170.735 77.538 L 340.604 77.538 L 341.265 78.199 L 345.231 78.860 L 350.519 82.165 L 354.484 86.131 L 357.128 90.097 L 357.128 91.419 L 358.450 93.402 L 358.450 96.046 L 359.111 96.707 L 359.111 427.852 L 358.450 428.513 L 216.342 428.513 L 215.681 427.852 L 215.681 365.060 L 193.208 365.060 L 193.208 450.986 L 358.450 450.986 L 359.111 451.647 L 358.450 456.934 L 354.484 464.205 L 350.519 468.171 L 343.248 472.137 L 340.604 472.137 L 339.943 472.798 L 171.396 472.798 L 170.735 472.137 L 166.769 471.476 L 160.160 467.510 L 156.194 462.883 L 153.550 458.256 L 153.550 456.274 L 152.228 452.969 L 152.228 184.615 L 153.550 183.293 L 191.886 183.293 L 193.208 184.615 L 193.208 232.205 L 194.530 232.205 L 195.191 232.866 L 330.028 232.866 L 330.689 232.205 L 330.689 210.393 L 330.028 209.732 L 216.342 209.732 L 215.681 209.071 L 215.681 184.615 L 217.003 183.293 L 281.117 183.293 L 281.117 161.481 L 280.456 160.821 L 216.342 160.821 L 215.681 160.160 L 215.681 133.721 L 216.342 133.060 L 331.350 133.060 L 331.350 110.587 L 193.208 110.587 L 193.208 160.160 L 192.547 160.821 L 152.889 160.821 L 152.228 160.160 L 152.228 97.368 L 152.889 96.707 L 153.550 92.080 L 157.516 85.470 L 162.803 80.843 Z M 193.208 248.068 L 193.208 356.467 L 215.681 356.467 L 215.681 277.151 L 216.342 276.490 L 218.986 277.812 L 224.274 282.439 L 226.917 283.761 L 261.949 310.199 L 263.271 310.199 L 308.217 276.490 L 308.877 277.151 L 308.877 356.467 L 331.350 356.467 L 331.350 248.068 L 308.217 248.068 L 263.271 281.778 L 260.627 281.117 L 217.003 248.068 Z M 219.647 41.846 L 222.952 38.541 L 288.387 38.541 L 291.692 41.185 L 291.692 59.692 L 291.031 61.014 L 288.387 62.997 L 223.613 62.997 L 219.647 59.692 Z"
    fill="#000000"
    fill-rule="evenodd"
    clip-rule="evenodd"
  />
</svg>
